
<svg xmlns="http://www.w3.org/2000/svg" version="1.1" xmlns:xlink="http://www.w3.org/1999/xlink" preserveAspectRatio="none" x="0px" y="0px" width="1090px" height="1080px" viewBox="0 0 1090 1080">
<defs>
<g id="Cat_0_Layer0_0_FILL">
<path fill="#FF9900" stroke="none" d="
M 446.25 0
L 357.2 89.05 87.95 89.05 0 1.1 0 441.9 446.25 441.9 446.25 0
M 348 133.55
Q 354.5 133.55 359.1 138.15 363.75 142.8 363.75 149.3 363.75 155.8 359.1 160.4 354.5 165.05 348 165.05 341.5 165.05 336.85 160.4 332.25 155.8 332.25 149.3 332.25 142.8 336.85 138.15 341.5 133.55 348 133.55
M 101.55 138.95
Q 108.05 138.95 112.65 143.55 117.3 148.2 117.3 154.7 117.3 161.2 112.65 165.8 108.05 170.45 101.55 170.45 95.05 170.45 90.4 165.8 85.8 161.2 85.8 154.7 85.8 148.2 90.4 143.55 95.05 138.95 101.55 138.95 Z"/>

<path fill="#000000" stroke="none" d="
M 112.65 143.55
Q 108.05 138.95 101.55 138.95 95.05 138.95 90.4 143.55 85.8 148.2 85.8 154.7 85.8 161.2 90.4 165.8 95.05 170.45 101.55 170.45 108.05 170.45 112.65 165.8 117.3 161.2 117.3 154.7 117.3 148.2 112.65 143.55
M 359.1 138.15
Q 354.5 133.55 348 133.55 341.5 133.55 336.85 138.15 332.25 142.8 332.25 149.3 332.25 155.8 336.85 160.4 341.5 165.05 348 165.05 354.5 165.05 359.1 160.4 363.75 155.8 363.75 149.3 363.75 142.8 359.1 138.15 Z"/>
</g>

<path id="Cat_0_Layer0_0_1_STROKES" stroke="#000000" stroke-width="1" stroke-linejoin="round" stroke-linecap="round" fill="none" d="
M 363.75 149.3
Q 363.75 155.8 359.1 160.4 354.5 165.05 348 165.05 341.5 165.05 336.85 160.4 332.25 155.8 332.25 149.3 332.25 142.8 336.85 138.15 341.5 133.55 348 133.55 354.5 133.55 359.1 138.15 363.75 142.8 363.75 149.3 Z
M 117.3 154.7
Q 117.3 161.2 112.65 165.8 108.05 170.45 101.55 170.45 95.05 170.45 90.4 165.8 85.8 161.2 85.8 154.7 85.8 148.2 90.4 143.55 95.05 138.95 101.55 138.95 108.05 138.95 112.65 143.55 117.3 148.2 117.3 154.7 Z"/>

<path id="Cat_0_Layer0_0_2_STROKES" stroke="#000000" stroke-width="20" stroke-linejoin="round" stroke-linecap="round" fill="none" d="
M 0 1.1
L 0 441.9 446.25 441.9 446.25 0 357.2 89.05 87.95 89.05 0 1.1 Z"/>

<path id="Cat_0_Layer0_1_1_STROKES" stroke="#000000" stroke-width="20" stroke-linejoin="round" stroke-linecap="round" fill="none" d="
M 287.95 293.9
Q 319.55 337.2 350.8 347.35 375.8 355.45 399.4 342.15 416.25 332.6 430.8 313.3 438.05 303.65 441.9 295.9 469.4 336.45 503.75 345.05 531.25 351.9 561.85 338.15 583.7 328.3 604.95 309.1 615.55 299.5 621.8 291.9"/>
</defs>

<g transform="matrix( 2.335174560546875, 0, 0, 2.3353271484375, 23.75,23.55) ">
<g transform="matrix( 1, 0, 0, 1, 0,0) ">
<use xlink:href="#Cat_0_Layer0_0_FILL"/>

<use xlink:href="#Cat_0_Layer0_0_1_STROKES"/>

<use xlink:href="#Cat_0_Layer0_0_2_STROKES"/>
</g>

<g transform="matrix( 1, 0, 0, 1, -223.7,-9.75) ">
<use xlink:href="#Cat_0_Layer0_1_1_STROKES"/>
</g>
</g>
</svg>
